<svg width="69" height="68" viewBox="0 0 69 68" fill="none" xmlns="http://www.w3.org/2000/svg">
<g clip-path="url(#clip0)" filter="url(#filter0_d)">
<path d="M52.1184 6.71074C47.1043 2.99684 41.154 1.03453 34.9108 1.03453C29.2181 1.03453 23.5625 2.67316 19.3532 5.48484V1.03453C19.3532 0.463477 18.8898 0 18.3187 0C17.7477 0 17.2842 0.463477 17.2842 1.03453V7.54242C17.2842 7.94379 17.5159 8.30894 17.879 8.47863C18.2421 8.64937 18.6714 8.59453 18.9798 8.33789C22.9252 5.06063 28.8808 3.10336 34.9108 3.10336C40.707 3.10336 46.2311 4.92609 50.8873 8.3741C51.0725 8.51062 51.2877 8.57684 51.5019 8.57684C51.8184 8.57684 52.1308 8.43199 52.3336 8.15789C52.674 7.69863 52.5778 7.05105 52.1184 6.71074Z" fill="#EF2A82"/>
<path d="M63.836 12.4138H57.3281C56.9268 12.4138 56.5636 12.6465 56.393 13.0097C56.2222 13.3727 56.2771 13.8021 56.5337 14.1104C59.811 18.0549 61.7682 24.0104 61.7682 30.0415C61.7682 35.8377 59.9455 41.3618 56.4975 46.0169C56.1572 46.4762 56.2534 47.1238 56.7127 47.4642C56.8978 47.6007 57.113 47.6669 57.3272 47.6669C57.6437 47.6669 57.9561 47.5221 58.1599 47.248C61.8737 42.2339 63.8361 36.2834 63.8361 30.0404C63.8361 24.3477 62.1975 18.6911 59.3858 14.4828H63.8361C64.4072 14.4828 64.8707 14.0193 64.8707 13.4483C64.8705 12.8772 64.4071 12.4138 63.836 12.4138Z" fill="#EF2A82"/>
<path d="M51.8631 51.5224C51.5001 51.3527 51.0718 51.4055 50.7624 51.6632C46.8169 54.9404 40.8613 56.8977 34.8313 56.8977C29.0341 56.8977 23.51 55.075 18.8548 51.627C18.3955 51.2866 17.748 51.3829 17.4075 51.8421C17.0672 52.3014 17.1634 52.949 17.6227 53.2894C22.6368 57.0032 28.5872 58.9656 34.8303 58.9656C40.523 58.9656 46.1786 57.327 50.3879 54.5153V58.9656C50.3879 59.5366 50.8513 60.0001 51.4224 60.0001C51.9934 60.0001 52.4569 59.5366 52.4569 58.9656V52.4577C52.4569 52.0562 52.2252 51.6911 51.8631 51.5224Z" fill="#EF2A82"/>
<path d="M13.2085 45.8907C9.93123 41.9453 7.97396 35.9907 7.97396 29.9597C7.97396 24.1635 9.7967 18.6394 13.2437 13.9842C13.584 13.5249 13.4878 12.8774 13.0285 12.5369C12.5692 12.1956 11.9217 12.2928 11.5812 12.7521C7.86744 17.7662 5.90514 23.7165 5.90514 29.9597C5.90514 35.6524 7.54377 41.308 10.3554 45.5172H5.90514C5.33408 45.5172 4.87061 45.9807 4.87061 46.5518C4.87061 47.1228 5.33408 47.5863 5.90514 47.5863H12.413C12.8144 47.5863 13.1785 47.3546 13.3492 46.9915C13.52 46.6283 13.4651 46.1989 13.2085 45.8907Z" fill="#EF2A82"/>
<path d="M35.9051 19.6531C35.9041 19.082 35.4406 18.6206 34.8706 18.6206C34.8706 18.6206 34.8695 18.6206 34.8685 18.6206C34.2964 18.6217 33.835 19.0861 33.8361 19.6572L33.8609 30.002C33.862 30.5731 34.3254 31.0344 34.8954 31.0344C34.8965 31.0344 34.8975 31.0344 34.8975 31.0344C35.4697 31.0334 35.931 30.569 35.93 29.9979L35.9051 19.6531Z" fill="#EF2A82"/>
<path d="M34.8954 28.9655H28.6637C28.0926 28.9655 27.6292 29.4289 27.6292 30C27.6292 30.571 28.0926 31.0345 28.6637 31.0345H34.8954C35.4664 31.0345 35.9299 30.571 35.9299 30C35.9299 29.4289 35.4664 28.9655 34.8954 28.9655Z" fill="#EF2A82"/>
<path d="M34.8706 8.27594C22.8923 8.27594 13.1465 18.0208 13.1465 30C13.1465 41.9793 22.8923 51.7241 34.8706 51.7241C46.8498 51.7241 56.5947 41.9793 56.5947 30C56.5947 18.0208 46.8498 8.27594 34.8706 8.27594ZM34.8706 49.6552C24.0323 49.6552 15.2154 40.8384 15.2154 30C15.2154 19.1617 24.0323 10.3449 34.8706 10.3449C45.7089 10.3449 54.5257 19.1617 54.5257 30C54.5257 40.8384 45.7089 49.6552 34.8706 49.6552Z" fill="#EF2A82"/>
<path d="M20.3879 28.9655H18.319C17.7479 28.9655 17.2844 29.4289 17.2844 30C17.2844 30.571 17.7479 31.0345 18.319 31.0345H20.3879C20.959 31.0345 21.4224 30.571 21.4224 30C21.4224 29.4289 20.959 28.9655 20.3879 28.9655Z" fill="#EF2A82"/>
<path d="M51.4222 28.9655H49.3533C48.7822 28.9655 48.3187 29.4289 48.3187 30C48.3187 30.571 48.7822 31.0345 49.3533 31.0345H51.4222C51.9933 31.0345 52.4567 30.571 52.4567 30C52.4567 29.4289 51.9933 28.9655 51.4222 28.9655Z" fill="#EF2A82"/>
<path d="M34.8706 43.4483C34.2995 43.4483 33.8361 43.9118 33.8361 44.4828V46.5518C33.8361 47.1228 34.2995 47.5863 34.8706 47.5863C35.4416 47.5863 35.9051 47.1228 35.9051 46.5518V44.4828C35.9051 43.9117 35.4416 43.4483 34.8706 43.4483Z" fill="#EF2A82"/>
<path d="M34.8706 12.4138C34.2995 12.4138 33.8361 12.8772 33.8361 13.4483V15.5172C33.8361 16.0883 34.2995 16.5518 34.8706 16.5518C35.4416 16.5518 35.9051 16.0883 35.9051 15.5172V13.4483C35.9051 12.8772 35.4416 12.4138 34.8706 12.4138Z" fill="#EF2A82"/>
<path d="M25.2572 39.6135C24.8537 39.2089 24.1988 39.2089 23.7944 39.6135L22.4352 40.9718C22.0317 41.3753 22.0317 42.0301 22.4352 42.4345C22.6369 42.6362 22.9017 42.7376 23.1665 42.7376C23.4314 42.7376 23.6962 42.6373 23.8979 42.4345L25.2572 41.0762C25.6606 40.6727 25.6606 40.0179 25.2572 39.6135Z" fill="#EF2A82"/>
<path d="M47.3051 17.5655C46.9006 17.161 46.2468 17.161 45.8424 17.5655L44.4841 18.9238C44.0795 19.3283 44.0795 19.9821 44.4841 20.3865C44.6857 20.5882 44.9506 20.6896 45.2154 20.6896C45.4803 20.6896 45.7451 20.5882 45.9468 20.3865L47.3051 19.0282C47.7095 18.6238 47.7095 17.97 47.3051 17.5655Z" fill="#EF2A82"/>
<path d="M47.3051 40.9717L45.9468 39.6134C45.5423 39.2088 44.8885 39.2088 44.4841 39.6134C44.0795 40.0179 44.0795 40.6717 44.4841 41.0761L45.8424 42.4344C46.0441 42.6361 46.3089 42.7375 46.5738 42.7375C46.8386 42.7375 47.1034 42.6372 47.3051 42.4344C47.7095 42.03 47.7095 41.3762 47.3051 40.9717Z" fill="#EF2A82"/>
<path d="M25.2571 18.9238L23.8978 17.5655C23.4944 17.161 22.8395 17.161 22.4351 17.5655C22.0306 17.97 22.0306 18.6247 22.4351 19.0282L23.7944 20.3865C23.9961 20.5882 24.2609 20.6896 24.5257 20.6896C24.7906 20.6896 25.0554 20.5882 25.2571 20.3865C25.6616 19.9821 25.6616 19.3273 25.2571 18.9238Z" fill="#EF2A82"/>
</g>
<defs>
<filter id="filter0_d" x="0.870605" y="0" width="68" height="68" filterUnits="userSpaceOnUse" color-interpolation-filters="sRGB">
<feFlood flood-opacity="0" result="BackgroundImageFix"/>
<feColorMatrix in="SourceAlpha" type="matrix" values="0 0 0 0 0 0 0 0 0 0 0 0 0 0 0 0 0 0 127 0"/>
<feOffset dy="4"/>
<feGaussianBlur stdDeviation="2"/>
<feColorMatrix type="matrix" values="0 0 0 0 0 0 0 0 0 0 0 0 0 0 0 0 0 0 0.25 0"/>
<feBlend mode="normal" in2="BackgroundImageFix" result="effect1_dropShadow"/>
<feBlend mode="normal" in="SourceGraphic" in2="effect1_dropShadow" result="shape"/>
</filter>
<clipPath id="clip0">
<rect width="60" height="60" fill="white" transform="translate(4.87061)"/>
</clipPath>
</defs>
</svg>
